<mxfile host="app.diagrams.net" modified="2023-11-23T23:00:14.187Z" agent="Mozilla/5.0 (Macintosh; Intel Mac OS X 10_15_7) AppleWebKit/537.36 (KHTML, like Gecko) Chrome/119.0.0.0 Safari/537.36" etag="iO5IlzEqa9B_TtdeXCSo" version="22.1.3" type="device">
  <diagram name="Page-1" id="D3KC7NWFIsjzDvF6gdU6">
    <mxGraphModel dx="794" dy="807" grid="1" gridSize="10" guides="1" tooltips="1" connect="1" arrows="1" fold="1" page="1" pageScale="1" pageWidth="850" pageHeight="1100" math="1" shadow="0">
      <root>
        <mxCell id="0" />
        <mxCell id="1" parent="0" />
        <mxCell id="DCDwKdRsvWmHy5jCpuEb-1" value="&lt;font color=&quot;#ffffff&quot; style=&quot;font-size: 25px;&quot;&gt;&lt;b style=&quot;&quot;&gt;`[\mathbb{Z}]`&lt;/b&gt;&lt;/font&gt;" style="ellipse;whiteSpace=wrap;html=1;aspect=fixed;fillColor=#6A8CBD;strokeColor=none;" parent="1" vertex="1">
          <mxGeometry x="250" y="90" width="60" height="60" as="geometry" />
        </mxCell>
      </root>
    </mxGraphModel>
  </diagram>
</mxfile>
